#!OML:ASF X:\für Bonn\!DataBase\2005_08_11_Bastian_Final\c3d\Bastian.ASF
:FULLY-SPECIFIED
:DEGREES
46
root 4.26489 16.9082 -2.5181 201.137 83.1714 -144.848
lowerback 14.4355 -0.309984 4.02239
upperback 12.2635 0.910928 0.981225
thorax 4.99755 1.10146 -1.27088
lowerneck -0.40944 -10.0569 -5.95586
upperneck 7.66038 -14.3388 15.6636
head 3.92453 -6.68772 5.08842
rclavicle 2.25124e-014 2.78299e-015
rhumerus -16.2798 9.29453 -80.1639
rradius 31.9959
rwrist -2.90556
rhand -25.5113 -0.324232
rfingers 7.12502
rthumb 1.01779 -30.3015
lclavicle 2.25124e-014 2.78299e-015
lhumerus -20.3788 -2.9115 86.7946
lradius 12.7083
lwrist 10.1752
lhand -11.7282 -6.35275
lfingers 7.12502
lthumb 14.3189 23.1335
rfemur 7.98413 -9.45396 23.6274
rtibia 53.3908
rfoot -11.8294 2.13627
rtoes -20.2081
lfemur -14.4778 -0.209042 -17.7909
ltibia 29.2532
lfoot 1.79741 -4.0104
ltoes -15.974
47
root 4.33454 16.8964 -2.54575 199.356 83.4213 -146.599
lowerback 15.024 -0.351319 3.78662
upperback 12.3992 0.888617 0.944521
thorax 4.82974 1.08698 -1.18231
lowerneck -0.395383 -10.0897 -5.86735
upperneck 7.66632 -14.3759 15.5399
head 3.91259 -6.70973 5.03493
rclavicle 1.52443e-014 1.93815e-014
rhumerus -15.6497 9.71913 -79.903
rradius 31.8686
rwrist -3.04291
rhand -25.7148 -0.282835
rfingers 7.12502
rthumb 0.821181 -30.261
lclavicle 1.52443e-014 1.93815e-014
lhumerus -20.0418 -4.92384 87.2933
lradius 13.3707
lwrist 11.6822
lhand -11.7582 -6.25236
lfingers 7.12502
lthumb 14.29 23.2359
rfemur 6.16596 -9.75665 22.8935
rtibia 56.6615
rfoot -10.0487 2.34785
rtoes -18.5633
lfemur -14.4131 0.0818367 -18.1886
ltibia 29.6596
lfoot 1.78628 -4.03325
ltoes -16.1029
48
root 4.40012 16.8845 -2.57286 197.254 83.6272 -148.696
lowerback 15.6185 -0.402229 3.5499
upperback 12.5269 0.851246 0.914613
thorax 4.65136 1.06444 -1.08425
lowerneck -0.332707 -10.1206 -5.82758
upperneck 7.63121 -14.4111 15.4965
head 3.88938 -6.73309 5.01687
rclavicle 3.7123e-014 4.47266e-016
rhumerus -14.9768 10.1035 -79.6366
rradius 31.7022
rwrist -3.16187
rhand -25.8961 -0.228567
rfingers 7.12502
rthumb 0.646113 -30.2073
lclavicle 3.7123e-014 4.47266e-016
lhumerus -19.724 -6.92932 87.7299
lradius 14.1192
lwrist 13.1354
lhand -11.7091 -6.09924
lfingers 7.12502
lthumb 14.3373 23.3857
rfemur 4.33848 -9.97906 22.2317
rtibia 59.7964
rfoot -8.067 2.33932
rtoes -16.6129
lfemur -14.3716 0.34315 -18.5915
ltibia 30.0108
lfoot 1.81548 -4.07964
ltoes -15.9658
49
root 4.46299 16.8772 -2.60066 194.996 83.782 -150.884
lowerback 16.3028 -0.463273 3.38575
upperback 12.6687 0.815621 0.881601
thorax 4.44623 1.05041 -1.03063
lowerneck -0.22897 -10.1651 -5.75153
upperneck 7.55213 -14.4582 15.4306
head 3.84313 -6.76609 4.98853
rclavicle 1.43622e-014 -1.98785e-016
rhumerus -14.3219 10.4156 -79.3529
rradius 31.5369
rwrist -3.25191
rhand -26.0847 -0.181816
rfingers 7.12502
rthumb 0.463915 -30.1611
lclavicle 1.43622e-014 -1.98785e-016
lhumerus -19.3957 -8.84424 88.0846
lradius 14.9011
lwrist 14.4462
lhand -11.7051 -5.91964
lfingers 7.12502
lthumb 14.3412 23.565
rfemur 2.60691 -10.1509 21.643
rtibia 62.7289
rfoot -6.30289 2.12553
rtoes -14.552
lfemur -14.214 0.560339 -18.972
ltibia 30.2872
lfoot 1.85392 -4.11973
ltoes -15.348
50
root 4.52132 16.8699 -2.62791 192.155 83.8921 -153.618
lowerback 17.0617 -0.537868 3.19781
upperback 12.8046 0.762836 0.848937
thorax 4.19784 1.02668 -0.96174
lowerneck -0.0199655 -10.2079 -5.73989
upperneck 7.41438 -14.5014 15.4403
head 3.77142 -6.8035 5.00028
rclavicle 8.19987e-015 3.8763e-015
rhumerus -13.7041 10.7519 -79.0543
rradius 31.4042
rwrist -3.40234
rhand -26.2591 -0.128499
rfingers 7.12502
rthumb 0.29546 -30.108
lclavicle 8.19987e-015 3.8763e-015
lhumerus -19.1115 -10.7565 88.3898
lradius 15.7651
lwrist 15.6406
lhand -11.6778 -5.74441
lfingers 7.12502
lthumb 14.3675 23.7384
rfemur 0.912201 -10.3079 21.0401
rtibia 65.4566
rfoot -4.79019 1.8181
rtoes -11.4719
lfemur -13.9877 0.776297 -19.3995
ltibia 30.4649
lfoot 1.90391 -4.19955
ltoes -14.8506
51
root 4.57794 16.8677 -2.65511 189.733 83.9756 -155.919
lowerback 17.8326 -0.649561 3.07014
upperback 12.9566 0.669851 0.839199
thorax 3.96441 0.987702 -0.895459
lowerneck 0.166326 -10.2326 -5.80738
upperneck 7.30825 -14.5231 15.444
head 3.71587 -6.83092 5.02213
rclavicle 2.98177e-015 7.35503e-015
rhumerus -13.0179 11.1559 -78.749
rradius 31.2285
rwrist -3.49485
rhand -26.4401 -0.0819923
rfingers 7.12502
rthumb 0.120709 -30.0617
lclavicle 2.98177e-015 7.35503e-015
lhumerus -18.755 -12.2922 88.584
lradius 16.5513
lwrist 16.5175
lhand -11.6845 -5.718
lfingers 7.12502
lthumb 14.3611 23.7653
rfemur -0.740975 -10.4312 20.5353
rtibia 67.93
rfoot -3.53182 1.44799
rtoes -9.30053
lfemur -13.6893 0.993652 -19.7609
ltibia 30.5365
lfoot 2.01178 -4.27432
ltoes -14.1147
52
root 4.63199 16.869 -2.68223 187.007 84.0209 -158.514
lowerback 18.5968 -0.788192 2.9518
upperback 13.162 0.548346 0.803165
thorax 3.79755 0.940988 -0.854869
lowerneck 0.27592 -10.2489 -5.82691
upperneck 7.12434 -14.528 15.4709
head 3.64661 -6.84863 5.04186
rclavicle 1.20762e-014 -1.74931e-014
rhumerus -12.1829 11.3721 -78.4944
rradius 30.9721
rwrist -3.4329
rhand -26.6153 0.0204916
rfingers 7.12502
rthumb -0.048498 -29.9592
lclavicle 1.20762e-014 -1.74931e-014
lhumerus -18.3443 -13.9222 88.6836
lradius 17.417
lwrist 17.4874
lhand -11.7345 -5.73443
lfingers 7.12502
lthumb 14.3129 23.7522
rfemur -2.33419 -10.557 20.0241
rtibia 70.1619
rfoot -2.68494 1.11379
rtoes -8.76664
lfemur -13.3396 1.21375 -20.136
ltibia 30.5241
lfoot 2.12214 -4.39873
ltoes -13.27
53
root 4.68351 16.8761 -2.70944 184.938 84.0024 -160.439
lowerback 19.3846 -0.955738 2.9264
upperback 13.38 0.406726 0.783588
thorax 3.63751 0.891807 -0.843652
lowerneck 0.356379 -10.2695 -5.81861
upperneck 6.95039 -14.5389 15.4817
head 3.58276 -6.86736 5.05029
rclavicle 1.33186e-014 -7.15625e-015
rhumerus -11.3156 11.6075 -78.2509
rradius 30.7215
rwrist -3.39405
rhand -26.7922 0.0610674
rfingers 7.12502
rthumb -0.219408 -29.9186
lclavicle 1.33186e-014 -7.15625e-015
lhumerus -17.861 -15.377 88.6955
lradius 18.2272
lwrist 18.3223
lhand -11.8648 -5.88344
lfingers 7.12502
lthumb 14.1873 23.6121
rfemur -3.85366 -10.6882 19.6334
rtibia 72.1161
rfoot -2.30472 0.812551
rtoes -9.83627
lfemur -12.9375 1.37531 -20.4227
ltibia 30.4377
lfoot 2.28208 -4.48074
ltoes -12.064
54
root 4.73168 16.8834 -2.73674 183.403 83.9267 -161.822
lowerback 20.1751 -1.14269 2.99712
upperback 13.6187 0.260434 0.780026
thorax 3.50431 0.848954 -0.865656
lowerneck 0.421134 -10.3155 -5.83205
upperneck 6.75264 -14.5844 15.5276
head 3.52267 -6.90319 5.06968
rclavicle 8.54774e-015 1.07344e-014
rhumerus -10.3824 11.6728 -77.9928
rradius 30.3806
rwrist -3.20974
rhand -26.9302 0.148101
rfingers 7.12502
rthumb -0.352695 -29.8314
lclavicle 8.54774e-015 1.07344e-014
lhumerus -17.3278 -16.7215 88.6366
lradius 19.0542
lwrist 18.9747
lhand -12.0206 -6.06464
lfingers 7.12502
lthumb 14.0371 23.4414
rfemur -5.31944 -10.8498 19.3222
rtibia 73.8021
rfoot -2.39149 0.387059
rtoes -11.1123
lfemur -12.5241 1.53655 -20.6401
ltibia 30.3206
lfoot 2.44501 -4.64493
ltoes -10.9093
55
root 4.77728 16.8939 -2.76452 182.292 83.8385 -162.791
lowerback 20.971 -1.34684 3.1148
upperback 13.8672 0.10511 0.795883
thorax 3.38376 0.805614 -0.889046
lowerneck 0.456388 -10.3545 -5.83201
upperneck 6.51796 -14.6162 15.5664
head 3.45361 -6.93295 5.08485
rclavicle -2.29596e-014 -4.77083e-015
rhumerus -9.43907 11.8581 -77.6832
rradius 30.1178
rwrist -3.12331
rhand -27.0424 0.182478
rfingers 7.12502
rthumb -0.461027 -29.7968
lclavicle -2.29596e-014 -4.77083e-015
lhumerus -16.692 -17.7659 88.501
lradius 19.8207
lwrist 19.428
lhand -12.1589 -6.28502
lfingers 7.12502
lthumb 13.9039 23.2302
rfemur -6.71907 -10.9725 19.0972
rtibia 75.1586
rfoot -2.75507 -0.0948211
rtoes -11.8336
lfemur -12.1395 1.66897 -20.8198
ltibia 30.2222
lfoot 2.57292 -4.75707
ltoes -10.0135
56
root 4.81961 16.9006 -2.79421 181.582 83.6915 -163.352
lowerback 21.7777 -1.58412 3.34838
upperback 14.1201 -0.0660574 0.791874
thorax 3.26718 0.765108 -0.993269
lowerneck 0.536668 -10.407 -5.79936
upperneck 6.24251 -14.6661 15.6866
head 3.37087 -6.97172 5.1219
rclavicle -5.86415e-015 -9.74045e-015
rhumerus -8.47958 11.8353 -77.4329
rradius 29.8088
rwrist -2.87632
rhand -27.1808 0.208729
rfingers 7.12502
rthumb -0.594674 -29.7702
lclavicle -5.86415e-015 -9.74045e-015
lhumerus -16.0484 -18.8486 88.2894
lradius 20.6578
lwrist 19.8324
lhand -12.3349 -6.41649
lfingers 7.12502
lthumb 13.7343 23.1102
rfemur -8.0229 -11.08 18.934
rtibia 76.1612
rfoot -3.30415 -0.361669
rtoes -11.6539
lfemur -11.7916 1.7507 -20.954
ltibia 30.18
lfoot 2.6798 -4.89247
ltoes -8.97104
57
root 4.86033 16.9053 -2.82297 181.398 83.5423 -163.408
lowerback 22.5729 -1.82374 3.59543
upperback 14.3678 -0.231791 0.845803
thorax 3.15482 0.726107 -1.04107
lowerneck 0.586306 -10.4513 -5.79279
upperneck 5.96507 -14.7006 15.7373
head 3.28766 -7.0052 5.14134
rclavicle 7.15625e-015 8.34896e-015
rhumerus -7.51562 11.9362 -77.1102
rradius 29.5305
rwrist -2.7269
rhand -27.3451 0.15671
rfingers 7.12502
rthumb -0.753385 -29.8217
lclavicle 7.15625e-015 8.34896e-015
lhumerus -15.3437 -19.6333 88.081
lradius 21.4213
lwrist 20.0558
lhand -12.5025 -6.60705
lfingers 7.12502
lthumb 13.5728 22.9305
rfemur -9.25479 -11.135 18.8689
rtibia 76.8102
rfoot -4.12744 -0.358278
rtoes -10.7936
lfemur -11.5221 1.83877 -21.023
ltibia 30.2151
lfoot 2.77396 -5.05566
ltoes -7.92486
